<svg viewBox="0 0 450 121" fill="none" xmlns="http://www.w3.org/2000/svg"><path d="M66.408 3.92c0-.784.224-1.4.672-1.848.448-.448 1.064-.672 1.848-.672h26.544c.784 0 1.4.224 1.848.672.448.448.672 1.064.672 1.848v112.56c0 .784-.224 1.4-.672 1.848-.448.448-1.064.672-1.848.672H70.104c-1.344 0-2.352-.56-3.024-1.68L32.808 60.2c-.224-.336-.448-.448-.672-.336-.224 0-.336.224-.336.672l.336 55.944c0 .784-.224 1.4-.672 1.848-.448.448-1.064.672-1.848.672H3.072c-.784 0-1.4-.224-1.848-.672-.448-.448-.672-1.064-.672-1.848V3.92c0-.784.224-1.4.672-1.848.448-.448 1.064-.672 1.848-.672H28.44c1.344 0 2.352.56 3.024 1.68L65.568 60.2c.224.336.448.504.672.504.224-.112.336-.392.336-.84L66.408 3.92Zm129.898 22.008c0 .784-.224 1.4-.672 1.848-.448.448-1.064.672-1.848.672h-50.232c-.56 0-.84.28-.84.84V45.08c0 .56.28.84.84.84h31.08c.784 0 1.4.224 1.848.672.448.448.672 1.064.672 1.848v21.84c0 .784-.224 1.4-.672 1.848-.448.448-1.064.672-1.848.672h-31.08c-.56 0-.84.28-.84.84v17.472c0 .56.28.84.84.84h50.232c.784 0 1.4.224 1.848.672.448.448.672 1.064.672 1.848v22.008c0 .784-.224 1.4-.672 1.848-.448.448-1.064.672-1.848.672H113.65c-.784 0-1.4-.224-1.848-.672-.448-.448-.672-1.064-.672-1.848V3.92c0-.784.224-1.4.672-1.848.448-.448 1.064-.672 1.848-.672h80.136c.784 0 1.4.224 1.848.672.448.448.672 1.064.672 1.848v22.008ZM240.375 119a3.525 3.525 0 0 1-1.848-.504c-.56-.448-.896-1.008-1.008-1.68L204.255 4.256c-.112-.224-.168-.504-.168-.84 0-1.344.784-2.016 2.352-2.016h28.56c1.456 0 2.352.728 2.688 2.184l14.28 54.768c.112.336.28.56.504.672.224 0 .392-.224.504-.672l11.256-54.768c.336-1.456 1.288-2.184 2.856-2.184h24.528c1.456 0 2.352.728 2.688 2.184l12.6 54.768c.112.448.28.672.504.672.224 0 .392-.224.504-.672l12.6-54.768c.336-1.456 1.232-2.184 2.688-2.184h28.728c.896 0 1.512.28 1.848.84.448.448.56 1.12.336 2.016l-29.904 112.56c-.336 1.456-1.232 2.184-2.688 2.184h-26.88c-1.568 0-2.52-.728-2.856-2.184l-12.096-57.792c-.112-.336-.28-.504-.504-.504-.224 0-.392.168-.504.504l-10.584 57.624c-.336 1.568-1.232 2.352-2.688 2.352h-25.032Zm163.338 1.344c-9.408 0-17.64-1.512-24.696-4.536-7.056-3.136-12.544-7.56-16.464-13.272-3.808-5.712-5.712-12.32-5.712-19.824V80.36c0-.784.224-1.4.672-1.848.448-.448 1.064-.672 1.848-.672h26.04c.784 0 1.4.224 1.848.672.448.448.672 1.064.672 1.848v1.008c0 3.136 1.624 5.936 4.872 8.4 3.36 2.352 7.784 3.528 13.272 3.528 4.144 0 7.112-.84 8.904-2.52 1.792-1.792 2.688-3.752 2.688-5.88 0-2.464-1.12-4.312-3.36-5.544-2.24-1.232-6.328-2.744-12.264-4.536l-4.872-1.344c-11.088-3.36-20.384-7.84-27.888-13.44-7.504-5.6-11.256-13.72-11.256-24.36 0-7.056 1.904-13.272 5.712-18.648 3.808-5.488 9.016-9.688 15.624-12.6 6.72-2.912 14.224-4.368 22.512-4.368 8.736 0 16.632 1.624 23.688 4.872 7.168 3.248 12.768 7.84 16.8 13.776 4.144 5.936 6.216 12.712 6.216 20.328v1.512c0 .784-.224 1.4-.672 1.848-.448.448-1.064.672-1.848.672h-26.04c-.784 0-1.4-.224-1.848-.672-.448-.448-.672-1.064-.672-1.848v-.168c0-3.36-1.512-6.384-4.536-9.072-3.024-2.8-7.112-4.2-12.264-4.2-3.584 0-6.44.728-8.568 2.184-2.016 1.456-3.024 3.472-3.024 6.048 0 2.016.728 3.752 2.184 5.208 1.568 1.344 3.92 2.688 7.056 4.032 3.136 1.232 7.952 2.856 14.448 4.872.896.336 4.816 1.568 11.76 3.696 7.056 2.016 12.936 5.768 17.64 11.256 4.704 5.376 7.056 11.928 7.056 19.656 0 7.504-1.904 14-5.712 19.488-3.808 5.376-9.128 9.52-15.96 12.432-6.832 2.912-14.784 4.368-23.856 4.368Z" fill="#000"/></svg>