<svg xmlns="http://www.w3.org/2000/svg" fill="none" viewBox="0 0 834 122"><path fill="#000" d="M47.08 121.016c-9.296 0-17.528-1.848-24.696-5.544C15.328 111.664 9.84 106.4 5.92 99.68 2 92.848.04 84.952.04 75.992V44.408c0-8.736 1.96-16.464 5.88-23.184C9.84 14.504 15.328 9.296 22.384 5.6 29.552 1.904 37.784.056 47.08.056c9.408 0 17.64 1.848 24.696 5.544 7.168 3.696 12.712 8.904 16.632 15.624 3.92 6.72 5.88 14.448 5.88 23.184v31.584c0 8.96-1.96 16.856-5.88 23.688-3.92 6.72-9.464 11.984-16.632 15.792-7.056 3.696-15.288 5.544-24.696 5.544zm0-27.048c4.704 0 8.456-1.512 11.256-4.536 2.912-3.136 4.368-7.28 4.368-12.432V44.072c0-5.152-1.456-9.24-4.368-12.264-2.8-3.136-6.552-4.704-11.256-4.704-4.592 0-8.344 1.568-11.256 4.704-2.8 3.024-4.2 7.112-4.2 12.264V77c0 5.152 1.4 9.296 4.2 12.432 2.912 3.024 6.664 4.536 11.256 4.536zm143.824-68.04c0 .784-.224 1.4-.672 1.848-.448.448-1.064.672-1.848.672H138.32c-.56 0-.84.28-.84.84V45.08c0 .56.28.84.84.84h31.08c.784 0 1.4.224 1.848.672.448.448.672 1.064.672 1.848v21.84c0 .784-.224 1.4-.672 1.848-.448.448-1.064.672-1.848.672h-31.08c-.56 0-.84.28-.84.84v42.84c0 .784-.224 1.4-.672 1.848-.448.448-1.064.672-1.848.672h-26.544c-.784 0-1.4-.224-1.848-.672-.448-.448-.672-1.064-.672-1.848V3.92c0-.784.224-1.4.672-1.848.448-.448 1.064-.672 1.848-.672h79.968c.784 0 1.4.224 1.848.672.448.448.672 1.064.672 1.848v22.008zm93.023 0c0 .784-.224 1.4-.672 1.848-.448.448-1.064.672-1.848.672h-50.064c-.56 0-.84.28-.84.84V45.08c0 .56.28.84.84.84h31.08c.784 0 1.4.224 1.848.672.448.448.672 1.064.672 1.848v21.84c0 .784-.224 1.4-.672 1.848-.448.448-1.064.672-1.848.672h-31.08c-.56 0-.84.28-.84.84v42.84c0 .784-.224 1.4-.672 1.848-.448.448-1.064.672-1.848.672h-26.544c-.784 0-1.4-.224-1.848-.672-.448-.448-.672-1.064-.672-1.848V3.92c0-.784.224-1.4.672-1.848.448-.448 1.064-.672 1.848-.672h79.968c.784 0 1.4.224 1.848.672.448.448.672 1.064.672 1.848v22.008zM294.463 119c-.784 0-1.4-.224-1.848-.672-.448-.448-.672-1.064-.672-1.848V3.92c0-.784.224-1.4.672-1.848.448-.448 1.064-.672 1.848-.672h26.544c.784 0 1.4.224 1.848.672.448.448.672 1.064.672 1.848v112.56c0 .784-.224 1.4-.672 1.848-.448.448-1.064.672-1.848.672h-26.544zm86.961 1.344c-9.184 0-17.304-1.792-24.36-5.376-6.944-3.584-12.376-8.624-16.296-15.12-3.808-6.608-5.712-14.224-5.712-22.848V43.064c0-8.512 1.904-16.016 5.712-22.512 3.92-6.496 9.352-11.536 16.296-15.12C364.12 1.848 372.24.056 381.424.056s17.248 1.68 24.192 5.04c7.056 3.36 12.488 8.12 16.296 14.28 3.92 6.048 5.88 13.104 5.88 21.168 0 1.008-.84 1.624-2.52 1.848l-26.544 1.68h-.504c-1.344 0-2.016-.616-2.016-1.848 0-4.592-1.344-8.232-4.032-10.92-2.688-2.8-6.272-4.2-10.752-4.2s-8.064 1.4-10.752 4.2c-2.688 2.688-4.032 6.328-4.032 10.92v36.12c0 4.48 1.344 8.12 4.032 10.92 2.688 2.688 6.272 4.032 10.752 4.032s8.064-1.344 10.752-4.032c2.688-2.8 4.032-6.44 4.032-10.92 0-.672.224-1.176.672-1.512.448-.336 1.064-.448 1.848-.336l26.544 1.344c1.68.112 2.52.672 2.52 1.68 0 8.064-1.96 15.176-5.88 21.336-3.808 6.16-9.24 10.976-16.296 14.448-6.944 3.36-15.008 5.04-24.192 5.04zM441.463 119c-.784 0-1.4-.224-1.848-.672-.448-.448-.672-1.064-.672-1.848V3.92c0-.784.224-1.4.672-1.848.448-.448 1.064-.672 1.848-.672h26.544c.784 0 1.4.224 1.848.672.448.448.672 1.064.672 1.848v112.56c0 .784-.224 1.4-.672 1.848-.448.448-1.064.672-1.848.672h-26.544zm120.729 0c-1.568 0-2.52-.728-2.856-2.184l-3.696-13.104c-.224-.448-.504-.672-.84-.672h-35.616c-.336 0-.616.224-.84.672l-3.696 13.104c-.336 1.456-1.288 2.184-2.856 2.184h-28.728c-2.016 0-2.744-.952-2.184-2.856L516.328 3.416c.448-1.344 1.4-2.016 2.856-2.016H554.8c1.456 0 2.408.672 2.856 2.016l35.448 112.728c.112.224.168.56.168 1.008 0 1.232-.784 1.848-2.352 1.848h-28.728zm-36.456-41.16c-.112.672.112 1.008.672 1.008h21c.672 0 .896-.336.672-1.008l-10.752-37.632c-.112-.336-.28-.504-.504-.504-.224 0-.392.168-.504.504L525.736 77.84zM606.017 119c-.784 0-1.4-.224-1.848-.672-.448-.448-.672-1.064-.672-1.848V3.92c0-.784.224-1.4.672-1.848.448-.448 1.064-.672 1.848-.672h26.544c.784 0 1.4.224 1.848.672.448.448.672 1.064.672 1.848v87.192c0 .56.28.84.84.84h51.912c.784 0 1.4.224 1.848.672.448.448.672 1.064.672 1.848v22.008c0 .784-.224 1.4-.672 1.848-.448.448-1.064.672-1.848.672h-81.816zm127.414 0c-.672 0-1.232-.112-1.68-.336-.336-.336-.504-.728-.504-1.176 0-.56.168-1.064.504-1.512l30.576-55.272c.224-.336.224-.672 0-1.008L731.751 4.424c-.336-.56-.504-1.064-.504-1.512 0-.448.168-.784.504-1.008.448-.336 1.008-.504 1.68-.504h29.064c1.456 0 2.464.616 3.024 1.848L781.983 35c.336.448.672.448 1.008 0l16.464-31.752c.672-1.232 1.68-1.848 3.024-1.848h28.896c.672 0 1.176.168 1.512.504.448.224.672.56.672 1.008 0 .448-.168.952-.504 1.512l-30.408 55.272a1.554 1.554 0 000 1.008l30.408 55.272c.336.448.504.952.504 1.512 0 .448-.224.84-.672 1.176-.336.224-.84.336-1.512.336h-28.728c-1.344 0-2.352-.616-3.024-1.848l-16.632-31.584c-.336-.56-.672-.56-1.008 0l-16.632 31.584c-.56 1.232-1.568 1.848-3.024 1.848h-28.896z"/></svg>